<?xml version="1.0" encoding="UTF-8"?>
<svg id="Capa_1" data-name="Capa 1" xmlns="http://www.w3.org/2000/svg" viewBox="0 0 364.96 682">
  <path d="M154.15,178.42c-41.82-40.14-74.58-85.6-70.57-146.91.69-10.59,3.79-21,4.98-31.51C27.53,53.2-32.39,123.53,20.16,205.92c69.5,108.98,265.22,173.23,253.4,326.57-.52,6.81-2.74,14.71-3.98,21.51,2.3,1.69,24.83-14.57,28.32-17.17,86.75-64.72,87.22-150.24,13.71-226.34-46.95-48.61-108.31-84.9-157.44-132.06ZM44.57,377c-2.46.05-4.49,2.84-5.97,4.53-84.17,95.74,23.37,155.11,85.98,211.96,25.22,22.9,53.92,51.81,53,88.51,18.13-17.41,33.66-45.23,30.71-71.22-5.74-50.59-74.7-97.04-109.24-130.73-19.58-19.11-54.48-58.97-54.48-87.54v-15.5Z"/>
  <path d="M154.15,178.42c49.13,47.16,110.49,83.45,157.44,132.06,73.51,76.1,73.04,161.61-13.71,226.34-3.48,2.6-26.02,18.86-28.32,17.17,1.24-6.8,3.46-14.7,3.98-21.51,11.82-153.33-183.9-217.59-253.4-326.57C-32.39,123.53,27.53,53.2,88.56,0c-1.19,10.51-4.29,20.92-4.98,31.51-4,61.31,28.75,106.77,70.57,146.91Z"/>
  <path d="M44.57,377v15.5c0,28.58,34.9,68.44,54.48,87.54,34.54,33.7,103.5,80.14,109.24,130.73,2.95,25.99-12.59,53.82-30.71,71.22.92-36.7-27.77-65.61-53-88.51-62.62-56.85-170.15-116.22-85.98-211.96,1.48-1.69,3.51-4.48,5.97-4.53Z"/>
</svg>