<svg viewBox="0 0 1024 1176.463" xmlns="http://www.w3.org/2000/svg"><path d="M68.447 649.56h64.064V507.28h60.944v142.28h63.622V454.656H132.51V442.58c-.002-.095-.003-.206-.003-.317 0-11.774 9.545-21.318 21.318-21.318 1.03 0 2.04.073 3.03.214l-.114-.014h36.71V368.52h-47.346c-2.188-.24-4.726-.378-7.296-.378-38.88 0-70.4 31.52-70.4 70.4v.168-.01 15.997h-36.27v52.625h36.31v142.24zm263.925 0h56.623l70.66-194.904h-64.78l-34.39 113.448-35.108-113.448h-64.504l71.46 194.904zm246.01-120.005c-1.08-18.123-16.04-32.412-34.337-32.412-.427 0-.852.008-1.275.023l.06-.002c-.966-.1-2.09-.158-3.225-.158-18.084 0-32.78 14.508-33.083 32.52v.028zm62.463 37.79H506.522c1.544 19.33 17.61 34.43 37.205 34.43 1.064 0 2.118-.044 3.16-.13l-.136.008c1.234.172 2.658.27 4.105.27 13.124 0 24.362-8.08 29.01-19.535l.076-.21 56.985 15.995c-15.172 32.534-47.602 54.677-85.204 54.677-1.748 0-3.486-.048-5.21-.142l.24.01c-1.13.048-2.458.074-3.79.074-54.22 0-98.17-43.952-98.17-98.17 0-.87.01-1.737.033-2.6l-.003.127c-.095-1.587-.15-3.442-.15-5.31 0-52.42 42.497-94.916 94.917-94.916 1.127 0 2.25.02 3.366.06l-.162-.005c1.917-.142 4.152-.223 6.406-.223 51.082 0 92.492 41.41 92.492 92.492 0 1.414-.032 2.82-.095 4.22l.007-.198c0 8.96-.4 14.796-.8 19.072zm271.36-60.024h-33.99c-21.834 0-33.59 16.397-33.59 43.67v98.61H780.24V507.32h-27.35c-21.874 0-33.59 16.397-33.59 43.67v98.61h-64.385V454.696H719.3v29.592c6.362-17.513 22.86-29.796 42.228-29.796 1.506 0 2.995.074 4.463.22l-.185-.016h78.858v29.592c6.348-17.51 22.837-29.796 42.195-29.796 1.503 0 2.99.074 4.454.22l-.185-.016H912.2zm39.828 148.16h.04c21.975 0 39.79-17.813 39.79-39.788s-17.815-39.79-39.79-39.79c-21.975 0-39.79 17.815-39.79 39.79 0 7.31 1.973 14.16 5.413 20.048l-.102-.188c6.997 11.984 19.79 19.912 34.436 19.926h.002z"/></svg>