<svg viewBox="0 0 24 24" xmlns="http://www.w3.org/2000/svg"><path d="m12 9.52a2.48 2.48 0 1 0 2.48 2.48 2.48 2.48 0 0 0 -2.48-2.48zm9.93-2.45a6.53 6.53 0 0 0 -.42-2.26 4 4 0 0 0 -2.32-2.32 6.53 6.53 0 0 0 -2.26-.42c-1.29-.07-1.67-.07-4.93-.07s-3.64 0-4.93.07a6.53 6.53 0 0 0 -2.26.42 4 4 0 0 0 -2.32 2.32 6.53 6.53 0 0 0 -.42 2.26c-.07 1.29-.07 1.67-.07 4.93s0 3.64.07 4.93a6.86 6.86 0 0 0 .42 2.27 3.94 3.94 0 0 0 .91 1.4 3.89 3.89 0 0 0 1.41.91 6.53 6.53 0 0 0 2.26.42c1.29.07 1.67.07 4.93.07s3.64 0 4.93-.07a6.53 6.53 0 0 0 2.26-.42 3.89 3.89 0 0 0 1.41-.91 3.94 3.94 0 0 0 .91-1.4 6.6 6.6 0 0 0 .42-2.27c.07-1.29.07-1.67.07-4.93s0-3.64-.07-4.93zm-2.54 8a5.73 5.73 0 0 1 -.39 1.8 3.86 3.86 0 0 1 -2.13 2.13 5.73 5.73 0 0 1 -1.81.35c-.79 0-1 0-3.06 0s-2.27 0-3.06 0a5.73 5.73 0 0 1 -1.81-.35 3.51 3.51 0 0 1 -1.31-.86 3.51 3.51 0 0 1 -.82-1.27 5.49 5.49 0 0 1 -.34-1.81c0-.79 0-1 0-3.06s0-2.27 0-3.06a5.49 5.49 0 0 1 .34-1.81 3.51 3.51 0 0 1 .86-1.31 3.59 3.59 0 0 1 1.27-.82 5.73 5.73 0 0 1 1.81-.35h3.06s2.27 0 3.06 0a5.73 5.73 0 0 1 1.81.35 3.51 3.51 0 0 1 1.31.86 3.51 3.51 0 0 1 .82 1.27 5.73 5.73 0 0 1 .35 1.81v3.06s.07 2.27.04 3.06zm-1.6-7.44a2.38 2.38 0 0 0 -1.41-1.41 4 4 0 0 0 -1.38-.22c-.78 0-1 0-3 0s-2.22 0-3 0a4 4 0 0 0 -1.38.26 2.38 2.38 0 0 0 -1.41 1.36 4.27 4.27 0 0 0 -.21 1.38v3s0 2.22 0 3a4.27 4.27 0 0 0 .26 1.38 2.38 2.38 0 0 0 1.41 1.41 4.27 4.27 0 0 0 1.33.26h3s2.22 0 3 0a4 4 0 0 0 1.38-.26 2.38 2.38 0 0 0 1.41-1.41 4 4 0 0 0 .26-1.38c0-.78 0-1 0-3s0-2.22 0-3a3.78 3.78 0 0 0 -.26-1.38zm-5.79 8.19a3.81 3.81 0 0 1 -3.81-3.82 3.82 3.82 0 1 1 3.81 3.82zm4-6.89a.9.9 0 0 1 0-1.79.9.9 0 0 1 0 1.79z"/></svg>