<?xml version="1.0" encoding="UTF-8" standalone="no"?>
<!-- Created with Inkscape (http://www.inkscape.org/) -->

<svg
   version="1.1"
   id="svg1"

   viewBox="0 0 566.71704 496.01587"
   xmlns="http://www.w3.org/2000/svg"
   xmlns:svg="http://www.w3.org/2000/svg">
  <defs
     id="defs1" />
  <g
     id="g1"
     transform="translate(-2.8211856,-2.5309844)">
    <g
       id="g2">
      <path
         id="path2"
  
         d="m 307.50731,2.5309845 0.4043,25.7851575 c 0.3641,23.197806 0.624,26.44959 2.5977,32.437502 3.3157,10.05948 11.0592,20.17011 20.1719,26.335927 14.0215,9.48714 9.2417,8.96144 84.75,9.28907 l 66.25,0.28906 v 153.964839 153.9668 l -49.25,-0.0703 -49.25,-0.0723 -90.4727,-91.98437 c -87.5403,-89.00371 -90.7124,-92.10252 -97.9414,-95.67774 -6.6921,-3.30966 -8.4374,-3.73196 -16.7344,-4.04101 -14.2886,-0.53222 -24.8292,3.85296 -33.7363,14.03515 -14.192,16.22354 -16.2069,41.35279 -4.7051,58.68555 3.7689,5.67944 193.1983,198.17604 194.3301,197.47656 0,0 3.0163,1.48552 5.6523,3.95117 5.4514,5.09913 9.2529,7.27978 17.1075,9.81446 5.027,1.6222 11.0529,1.77902 70.0664,1.82812 40.9479,0.0341 66.7369,-0.32956 70.5,-0.99609 35.7232,-6.32736 63.6118,-33.53561 70.9863,-69.25391 1.2876,-6.23459 1.4494,-30.37267 1.2129,-180.69531 -0.3009,-191.164289 0.2109,-175.351596 -6.1973,-191.216772 -9.5741,-23.703107 -31.2295,-42.861241 -57.5801,-50.9394535 l -7.4882,-2.296875 -95.3379,-0.306641 z M 132.68121,14.099345 c -49.426602,0 -54.071002,0.145214 -61.000002,1.914062 -33.1268,8.456712 -57.3402,32.504667 -66.2187997,65.767577 l -2.2187,8.318357 -0.336,159.999999 c -0.2321,110.48024 -0.0018,162.91093 0.7461,169.40625 1.3899,12.07074 4.9601,22.66471 10.8124997,32.08203 10.8813,17.50939 28.7237,30.0919 48.7149,34.35547 3.85,0.82109 11.8375,1.52942 17.75,1.57422 l 10.75,0.082 v -190 -190 h 33.898402 33.8984 l 103.2676,105.25 c 56.7968,57.88744 105.1054,106.77164 107.3516,108.63281 2.2463,1.86117 7.009,4.78617 10.584,6.5 5.9388,2.84701 7.3635,3.11719 16.5,3.11719 9.1857,0 10.5523,-0.26161 16.7871,-3.21484 27.514,-13.03245 36.065,-49.86557 17.0449,-73.42578 -2.7166,-3.365 -200.3853,-205.289978 -218.6973,-223.40625 -6.4061,-6.337584 -10.0463,-8.992694 -17.1347,-12.5 l -9,-4.453125 z" />
    </g>
  </g>
</svg>
