<?xml version="1.0" encoding="UTF-8"?>
<svg id="Capa_1" data-name="Capa 1" xmlns="http://www.w3.org/2000/svg" viewBox="0 0 419.54 180.41">
  <path d="M183.14,90.35c.57-.36,2.15-.36,2.72,0,.86.54,9.31,16.41,9.72,17.83.91,3.13-3.49,8.9-5.6,11.49-26.97,33.16-77.4,25.46-92.75-14.22-24.27-62.73,59.03-111.11,98.19-50.19,9.86,15.34,18.65,36.94,29.14,50.86,14.82,19.67,47.8,17.07,57.93-5.96,11.57-26.31-6.88-55.54-36.75-50.75-16.14,2.58-22.63,17.43-30.23,29.75l-11.08-18.94c-1.26-2.82,1.48-6.54,3.14-8.99,22.52-33.2,71.26-31.03,91.25,3.63,26.48,45.91-17.34,102.12-67.8,81.8-31.02-12.5-38.89-52.16-57.57-76.43-8.57-11.13-26.5-14.32-39.14-9.26-23.67,9.47-28.22,45.14-8.22,60.62,12.66,9.8,34.1,9.25,45.46-2.37,3.29-3.36,10.66-18.29,11.6-18.88Z"/>
  <path d="M341,136.19v43c-8.45,1.26-22.36,4.06-23.92-7.58l.61-126.23c2.34-8.89,18.8-14.99,27.1-16.9,32.02-7.38,70.01,5.71,74.12,42.31,4.9,43.65-18.42,77.42-65.18,69.18-4.12-.73-8.49-3.4-12.73-3.77ZM341,56.19c-3.27-.08-2.9-.72-3,2.46-.51,16.39-.63,34.74-.01,51.1.11,3.02-.08,2.66,3.01,2.45.06.88-.31,1.87.24,2.7,16.19,10.86,42.48,8.06,50.25-11.71,8.34-21.21,2.98-54.1-24.1-56.88-6.38-.65-23.72.63-26.66,7.21-.75,1.68.28,2.21.27,2.68Z"/>
  <path d="M25,120.19h63c2.59,7.19,4.61,18.42-4.55,20.92H10.58c-3.6.67-10.58-6.87-10.58-9.42V1.19c6.05-.61,16.36-2.8,21.53.97.81.59,3.47,3.94,3.47,4.53v113.5Z"/>
  <path d="M341,56.19c-.29,17.74-1.13,38.53,0,56-3.1.21-2.9.57-3.01-2.45-.61-16.36-.5-34.71.01-51.1.1-3.18-.27-2.53,3-2.46Z"/>
</svg>