<?xml version="1.0" encoding="UTF-8"?>
<svg id="Capa_1" data-name="Capa 1" xmlns="http://www.w3.org/2000/svg" viewBox="0 0 211.53 221.99">
  <path d="M.09,68.07c-.15-2.24.98-4.37,2.91-5.5,22.19-15.49,44.36-31.03,66.51-46.63,7.16-5.09,14.35-10,22-15.34.37-.25.8-.38,1.24-.38,1.23-.02,2.25.96,2.27,2.19,0,0,0,0,0,.01v12.49c0,14.93-.28,29.8,0,44.72.22,3.05-1.34,5.94-4,7.44-12.67,8.71-25.34,17.55-38,26.33-16.12,11.15-32.15,22.33-48.24,33.48l-1.14.87c-1.01.75-2.44.54-3.19-.47-.28-.38-.44-.84-.45-1.31h0c.01-19.27.04-38.57.09-57.9Z"/>
  <path d="M.16,161.86c-.15-2.24.97-4.37,2.91-5.5,22.19-15.49,44.36-31.04,66.52-46.63,7.15-5.09,14.34-10,22-15.34,1.04-.69,2.44-.41,3.13.63.23.35.36.76.38,1.18v12.5c0,14.93-.28,29.79,0,44.72.22,3.05-1.34,5.94-4,7.44-12.67,8.71-25.33,17.55-38,26.33-16.13,11.15-32.15,22.33-48.24,33.48l-1.14.87c-.39.29-.86.44-1.34.45-1.25.02-2.28-.98-2.3-2.23H.08c.01-19.27.04-38.57.08-57.9Z"/>
  <path d="M211.47,67.86c.15-2.24-.98-4.37-2.91-5.5-22.19-15.49-44.36-31.04-66.51-46.63-7.16-5.09-14.35-10-22-15.33-.37-.26-.82-.4-1.27-.4-1.23-.02-2.25.97-2.27,2.2v12.5c0,14.93.28,29.8,0,44.73-.22,3.04,1.34,5.94,4,7.43,12.67,8.72,25.34,17.56,38,26.33,16.12,11.15,32.15,22.33,48.24,33.48l1.14.88c1.02.75,2.45.52,3.2-.5.27-.37.43-.82.44-1.28h0c0-19.27-.01-38.57-.06-57.91Z"/>
  <path d="M211.47,161.86c.15-2.24-.97-4.37-2.91-5.5-22.19-15.49-44.36-31.04-66.51-46.63-7.16-5.09-14.35-10-22-15.34-.37-.26-.82-.39-1.27-.39-1.23-.02-2.25.96-2.27,2.19h0v12.5c0,14.93.28,29.79,0,44.72-.22,3.05,1.34,5.94,4,7.44,12.67,8.71,25.34,17.55,38,26.33,16.12,11.15,32.15,22.33,48.24,33.48l1.14.87c1.01.75,2.44.54,3.19-.47.28-.38.44-.84.45-1.31h0c0-19.26-.01-38.56-.06-57.89Z"/>
</svg>