<?xml version="1.0" encoding="UTF-8"?>
<svg id="Capa_1" data-name="Capa 1" xmlns="http://www.w3.org/2000/svg" viewBox="0 0 1586.6 1128.5">
  <defs>
    <style>
      .cls-1 {
        isolation: isolate;
      }
    </style>
  </defs>
  <g>
    <g>
      <path d="M313.1,202c-15-16.3-33.6-29.3-55.7-39.1-22.1-9.8-47.7-14.7-76.7-14.7s-53.7,4.7-75.4,14c-21.7,9.3-40,22-55,38s-26.3,34.9-33.9,56.5c-7.6,21.6-11.4,44.8-11.4,69.4v314h83v-179.3c12,13.4,26.3,24,42.9,31.7,16.6,7.7,36.2,11.5,58.8,11.5,24.5,0,46.9-4.7,67.5-13.9,20.5-9.3,38.2-22,53.2-38s26.6-34.9,34.9-56.5c8.3-21.6,12.4-45,12.4-70.1,0-23.3-3.7-45.6-11.1-67-7.3-21.4-18.5-40.2-33.5-56.5ZM269.6,365.1c-3.5,12.1-9,22.6-16.6,31.7-7.6,9.1-17.4,16.2-29.4,21.3-12,5.1-26.6,7.7-43.6,7.7-28.6,0-51-8.1-67.4-24.1-16.3-16-24.5-41.3-24.5-75.7s8.1-59.7,24.5-75.7c16.3-16.1,38.8-24.1,67.4-24.1,17.1,0,31.6,2.6,43.6,7.7,12,5.1,21.8,12.2,29.4,21.3,7.6,9,13.1,19.6,16.6,31.7,3.5,12.1,5.2,25.1,5.2,39.1s-1.8,27-5.2,39.1Z"/>
      <path d="M93,645.1H0v-319c0-25.12,3.93-49.03,11.68-71.06,7.83-22.26,19.6-41.87,34.97-58.26,15.48-16.51,34.55-29.69,56.68-39.18,22.3-9.56,48.33-14.4,77.37-14.4s56.09,5.09,78.73,15.13c22.73,10.08,42.03,23.63,57.35,40.28h0c15.47,16.81,27.1,36.42,34.55,58.27,7.54,21.81,11.37,44.9,11.37,68.61,0,25.72-4.28,49.91-12.73,71.89-8.56,22.28-20.65,41.83-35.92,58.13-15.46,16.49-33.89,29.66-54.78,39.13-21.32,9.52-44.72,14.35-69.57,14.35-23.3,0-43.79-4.03-60.9-11.96-13.27-6.15-25.27-14.2-35.8-24v172.07ZM10,635.1h73v-187.38l8.72,9.74c11.54,12.89,25.43,23.15,41.28,30.5,15.79,7.32,34.86,11.04,56.7,11.04,23.43,0,45.46-4.53,65.46-13.47,19.67-8.92,37.03-21.32,51.59-36.85,14.39-15.35,25.79-33.81,33.88-54.87,8.01-20.84,12.07-43.82,12.07-68.31,0-22.6-3.64-44.59-10.83-65.37-7.01-20.55-17.93-38.96-32.45-54.75h0c-14.39-15.64-32.57-28.39-54.05-37.91-21.35-9.47-46.48-14.27-74.67-14.27s-52.38,4.57-73.43,13.6c-20.85,8.94-38.79,21.33-53.32,36.82-14.42,15.38-25.46,33.79-32.83,54.74-7.38,20.96-11.12,43.76-11.12,67.74v309ZM180,430.8c-29.68,0-53.53-8.59-70.89-25.52-17.26-16.94-26.01-43.61-26.01-79.28s8.75-62.44,26.01-79.28c17.14-16.93,41-25.52,70.89-25.52,17.58,0,32.91,2.72,45.56,8.1,12.68,5.39,23.2,13.02,31.28,22.7,7.94,9.4,13.85,20.68,17.57,33.52,3.58,12.38,5.4,26,5.4,40.49s-1.81,27.73-5.39,40.45v.04c-3.73,12.85-9.47,23.81-17.58,33.52-8.08,9.67-18.6,17.31-31.28,22.7-12.64,5.37-27.97,8.1-45.56,8.1ZM180,231.2c-27.17,0-48.67,7.62-63.89,22.66-15.28,14.91-23.01,39.17-23.01,72.14s7.74,57.15,23,72.13c15.41,15.04,36.92,22.67,63.9,22.67,16.23,0,30.24-2.46,41.64-7.3,11.21-4.76,20.47-11.46,27.52-19.9,7.19-8.61,12.3-18.38,15.63-29.86,3.32-11.83,5.01-24.53,5.01-37.73s-1.68-26.23-5-37.71c-3.32-11.48-8.57-21.52-15.62-29.86-7.07-8.46-16.33-15.16-27.54-19.92-11.4-4.85-25.41-7.3-41.64-7.3Z"/>
    </g>
    <g>
      <path d="M755.5,400.8c-1.4-15.3-2.1-29.4-2.1-42.2s-.2-23.6-.7-32.4c-1-27-5.7-51.5-14.2-73.6-8.6-22.1-20.3-40.8-35.3-56.2-15-15.4-33.1-27.2-54.3-35.6-21.2-8.4-44.9-12.6-71.2-12.6-28.2,0-53.3,4.7-75.4,14-22.1,9.3-40.8,22-56,38s-26.8,34.9-34.6,56.5c-7.9,21.6-11.8,44.5-11.8,68.7s4.1,48.4,12.6,70.3c8.3,21.6,19.8,40.5,34.6,56.5,14.7,16,32.5,28.7,53.2,38,20.8,9.4,43.4,14,67.8,14,25.8,0,48-5.2,66.4-15.4,18.4-10.3,33.6-24.2,45.6-41.9,3.7,18.6,9.5,36.5,17.3,53.7h83c-7.9-17.2-13.6-34.3-17.3-51.3-3.7-17-6.2-33.1-7.6-48.5ZM645,401.8c-16.4,16.1-38.8,24.1-67.4,24.1-17.1,0-31.6-2.6-43.6-7.7-12-5.1-21.8-12.2-29.4-21.3-7.6-9-13.1-19.6-16.6-31.7-3.5-12.1-5.2-25.1-5.2-39.1s1.7-27,5.2-39.1c3.5-12,9-22.6,16.6-31.7,7.6-9.1,17.4-16.2,29.4-21.3s26.5-7.7,43.6-7.7c31.3,0,54.1,8.9,68.4,26.9,14.3,17.9,22.1,42.2,23.5,72.9,0,34.4-8.1,59.7-24.5,75.7Z"/>
      <path d="M568.1,509.2c-25.15,0-48.65-4.86-69.86-14.44-21.28-9.56-39.73-22.74-54.82-39.17-15.05-16.27-27.03-35.82-35.59-58.09-8.7-22.42-12.93-46-12.93-72.09s4.07-48.46,12.1-70.42c7.99-22.13,19.99-41.72,35.67-58.23,15.64-16.46,35.05-29.64,57.69-39.16,22.69-9.55,48.71-14.39,77.34-14.39,26.78,0,51.35,4.36,73.04,12.95,21.87,8.66,40.72,21.03,56.04,36.76,15.31,15.72,27.55,35.19,36.38,57.88,8.63,22.44,13.52,47.74,14.54,75.23.47,8.28.7,18.97.7,32.58,0,12.62.7,26.67,2.08,41.74h0c1.39,15.27,3.91,31.39,7.51,47.89,3.67,16.84,9.37,33.76,16.96,50.28l3.25,7.09h-94.02l-1.33-2.94c-6.44-14.2-11.55-28.94-15.24-43.95-11.22,14.04-24.85,25.6-40.66,34.45-19.2,10.65-42.36,16.04-68.84,16.04ZM577.7,153.2c-27.29,0-52,4.58-73.46,13.61-21.36,8.99-39.63,21.38-54.31,36.84-14.72,15.49-26,33.92-33.52,54.75-7.64,20.88-11.5,43.41-11.5,67,0,24.83,4.01,47.23,12.26,68.49,8.11,21.09,19.41,39.56,33.61,54.91,14.19,15.44,31.54,27.83,51.58,36.83,19.92,9,42.03,13.56,65.75,13.56s46.29-4.97,63.98-14.77c17.68-9.9,32.46-23.47,43.89-40.33l6.71-9.9,2.33,11.73c3.38,16.97,8.63,33.66,15.64,49.68h72.08c-6.34-14.91-11.21-30.1-14.51-45.24-3.68-16.91-6.27-33.43-7.69-49.11h0c-1.41-15.38-2.12-29.73-2.12-42.66s-.23-23.93-.69-32.12c-.98-26.48-5.65-50.7-13.88-72.09-8.33-21.41-19.85-39.75-34.21-54.51-14.33-14.71-32.01-26.3-52.56-34.44-20.51-8.13-43.85-12.25-69.36-12.25ZM577.6,430.9c-17.58,0-32.91-2.72-45.56-8.1-12.68-5.39-23.2-13.02-31.28-22.7-7.94-9.4-13.85-20.68-17.57-33.52-3.58-12.38-5.4-26-5.4-40.49s1.82-28.11,5.4-40.49c3.71-12.73,9.62-24,17.57-33.52,8.08-9.67,18.6-17.31,31.28-22.7,12.64-5.37,27.97-8.1,45.56-8.1,32.81,0,57.14,9.69,72.31,28.79,14.86,18.6,23.14,44.1,24.58,75.78v.23c0,35.76-8.74,62.43-25.99,79.27h0c-17.26,16.94-41.11,25.53-70.9,25.53ZM577.6,231.3c-16.23,0-30.24,2.46-41.64,7.3-11.21,4.76-20.47,11.46-27.52,19.9-7.05,8.45-12.32,18.5-15.64,29.89-3.32,11.47-5,24.15-5,37.7s1.68,26.23,5,37.71c3.32,11.48,8.57,21.52,15.62,29.86,7.07,8.46,16.33,15.16,27.54,19.92,11.4,4.85,25.41,7.3,41.64,7.3,27.46,0,48.36-7.41,63.9-22.67h.01c15.24-14.88,22.97-39.1,22.99-72.02-1.36-29.47-8.9-52.98-22.41-69.89-13.38-16.84-34.47-25.02-64.49-25.02Z"/>
    </g>
    <g>
      <path d="M997.2,425.8c-31.8,0-55.2-9.3-70.1-27.8-15-18.6-22.5-42.6-22.5-71.9v-84.4h107.1v-78.2h-107.2v-95.6h-83v258.2c0,24.6,4,47.8,12.1,69.4,8.1,21.6,19.6,40.5,34.6,56.5s33.1,28.7,54.3,38c21.2,9.4,45.2,14,71.9,14,8.7,0,15.1-.3,19-1s8.9-1.5,14.9-2.4v-78.2c-4.6.9-9.2,1.7-13.8,2.4-4.6.6-10.4,1-17.3,1Z"/>
      <path d="M994.4,509c-27.46,0-52.33-4.85-73.93-14.43-21.65-9.5-40.47-22.67-55.92-39.15-15.29-16.31-27.28-35.87-35.63-58.16-8.24-21.97-12.42-45.91-12.42-71.16V62.9h93v95.6h107.2v88.2h-107.1v79.4c0,28.03,7.2,51.16,21.39,68.76,13.86,17.21,36.14,25.94,66.21,25.94,6.07,0,11.81-.33,16.6-.95,4.5-.69,9.05-1.48,13.54-2.36l5.96-1.17v88.58l-4.26.64c-6.2.93-11.03,1.71-14.76,2.38-4.1.74-10.42,1.08-19.88,1.08ZM826.5,72.9v253.2c0,24.04,3.96,46.8,11.78,67.64,7.89,21.05,19.19,39.5,33.57,54.84,14.52,15.49,32.24,27.88,52.66,36.84,20.33,9.01,43.83,13.58,69.89,13.58,8.62,0,14.71-.31,18.12-.92,2.92-.52,6.47-1.11,10.78-1.78v-67.89c-2.69.48-5.38.92-8.05,1.33l-.11.02c-5.3.69-11.34,1.04-17.95,1.04-33.25,0-58.14-9.98-73.99-29.66-15.66-19.42-23.61-44.67-23.61-75.04v-89.4h107.1v-68.2h-107.2v-95.6h-73Z"/>
    </g>
    <g>
      <rect x="1082.9" y="151.6" width="83" height="348.9"/>
      <path d="M1170.9,505.5h-93V146.6h93v358.9ZM1087.9,495.5h73V156.6h-73v338.9Z"/>
    </g>
    <g>
      <path d="M1124.5,5c-16.6,0-29.7,5.2-39.1,15.4-9.5,10.3-14.2,22.8-14.2,37.7s4.7,27.6,14.2,37.9c9.5,10.5,22.5,15.7,39.1,15.7s29.5-5.2,38.7-15.7c9.2-10.4,13.8-23.1,13.8-38s-4.6-26.8-13.8-37.3-22.1-15.7-38.7-15.7Z"/>
      <path d="M1124.5,116.7c-17.99,0-32.39-5.84-42.81-17.35-10.27-11.13-15.49-25.03-15.49-41.25s5.22-29.92,15.52-41.09c10.4-11.29,24.79-17.01,42.78-17.01s32.34,5.86,42.46,17.41c9.98,11.39,15.04,25.05,15.04,40.59s-5.07,30.02-15.05,41.31c-10.1,11.53-24.39,17.39-42.45,17.39ZM1124.5,10c-15.07,0-26.99,4.64-35.42,13.79-8.67,9.4-12.88,20.62-12.88,34.31s4.33,25.25,12.88,34.51c8.59,9.49,20.17,14.09,35.42,14.09s26.69-4.58,34.94-14c8.34-9.43,12.56-21.1,12.56-34.71s-4.11-24.36-12.56-34c-8.25-9.42-19.68-14-34.94-14Z"/>
    </g>
    <g>
      <path d="M1569.8,256.6c-7.9-21.6-19.4-40.5-34.6-56.5-15.3-16-33.8-28.7-55.7-38-21.9-9.3-46.6-14-74.3-14s-52.4,4.7-74.3,14c-21.9,9.3-40.5,22-55.7,38s-26.8,34.9-34.6,56.5c-7.9,21.6-11.8,44.8-11.8,69.4s3.9,47.8,11.8,69.4c7.9,21.6,19.4,40.5,34.6,56.5,15.3,16,33.8,28.7,55.7,38,21.9,9.4,46.6,14,74.3,14s52.4-4.7,74.3-14c21.9-9.3,40.5-22,55.7-38s26.8-34.9,34.6-56.5c7.9-21.6,11.8-44.7,11.8-69.4s-4-47.8-11.8-69.4ZM1493.2,365.1c-3.5,12.1-9,22.6-16.6,31.7-7.6,9.1-17.2,16.2-29,21.3-11.7,5.1-25.9,7.7-42.5,7.7s-30.7-2.6-42.5-7.7c-11.7-5.1-21.4-12.2-29-21.3-7.6-9-13.1-19.6-16.6-31.7-3.5-12.1-5.2-25.1-5.2-39.1s1.7-26.9,5.2-39.1c3.5-12,9-22.6,16.6-31.7,7.6-9.1,17.2-16.2,29-21.3,11.7-5.1,25.9-7.7,42.5-7.7s30.7,2.6,42.5,7.7c11.7,5.1,21.4,12.2,29,21.3,7.6,9,13.1,19.6,16.6,31.7,3.5,12.1,5.2,25.1,5.2,39.1s-1.7,27-5.2,39.1Z"/>
      <path d="M1405.2,508.9c-28.34,0-54-4.85-76.27-14.41-22.24-9.45-41.54-22.62-57.34-39.14-15.52-16.34-27.52-35.93-35.68-58.24-8.03-21.96-12.1-45.89-12.1-71.12s4.07-49.16,12.1-71.12c7.99-22.13,20-41.73,35.67-58.23,15.63-16.46,34.94-29.63,57.37-39.16,22.5-9.55,48.15-14.4,76.25-14.4s53.76,4.84,76.25,14.4c22.26,9.45,41.56,22.62,57.36,39.15,15.52,16.34,27.52,35.93,35.68,58.24v.02c8.03,22.23,12.1,46.15,12.1,71.1s-4.07,49.16-12.1,71.12c-7.99,22.13-19.99,41.73-35.67,58.23-15.63,16.46-34.94,29.63-57.37,39.16-22.5,9.55-48.15,14.4-76.25,14.4ZM1405.2,153.1c-26.75,0-51.09,4.58-72.35,13.6-21.17,8.99-39.34,21.38-54.03,36.84-14.72,15.49-26,33.91-33.52,54.75-7.63,20.88-11.5,43.65-11.5,67.7s3.87,46.83,11.5,67.68c7.69,21.02,18.97,39.45,33.53,54.77,14.84,15.52,33.03,27.92,54.03,36.84,21.03,9.03,45.37,13.6,72.35,13.6s51.09-4.58,72.35-13.6c21.17-8.99,39.34-21.38,54.03-36.84,14.72-15.49,26-33.91,33.52-54.75,7.64-20.87,11.5-43.65,11.5-67.7s-3.87-46.56-11.5-67.7c-7.69-21.01-18.96-39.43-33.52-54.76-14.84-15.52-33.03-27.92-54.03-36.84-21.25-9.03-45.6-13.6-72.35-13.6ZM1405.1,430.8c-17.06,0-32.03-2.73-44.48-8.11-12.43-5.42-22.81-13.05-30.85-22.68-7.94-9.4-13.85-20.68-17.56-33.52-3.58-12.38-5.4-26-5.4-40.49s1.81-28,5.39-40.48c3.72-12.74,9.62-24.02,17.57-33.53,8.11-9.71,18.49-17.34,30.85-22.68,12.34-5.38,27.31-8.11,44.48-8.11s32.03,2.73,44.48,8.11c12.43,5.42,22.81,13.05,30.85,22.68,7.94,9.4,13.85,20.68,17.57,33.52,3.58,12.38,5.4,26,5.4,40.49s-1.82,28.11-5.4,40.49c-3.72,12.85-9.46,23.81-17.57,33.52-8.11,9.71-18.49,17.34-30.85,22.68-12.34,5.38-27.31,8.11-44.48,8.11ZM1405.1,231.2c-15.79,0-29.41,2.45-40.5,7.28-11.08,4.79-19.96,11.3-27.16,19.92-7.05,8.45-12.32,18.5-15.64,29.9-3.32,11.56-5,24.25-5,37.7s1.68,26.23,5,37.71c3.32,11.47,8.57,21.52,15.62,29.86,7.06,8.45,16.2,15.16,27.18,19.94,11.18,4.83,24.81,7.28,40.5,7.28s29.42-2.45,40.5-7.28c11.08-4.79,19.96-11.31,27.16-19.92,7.2-8.62,12.31-18.39,15.64-29.88,3.32-11.48,5-24.17,5-37.71s-1.68-26.23-5-37.71c-3.32-11.48-8.57-21.52-15.62-29.86-7.06-8.45-16.2-15.16-27.18-19.94-11.18-4.83-24.81-7.28-40.5-7.28Z"/>
    </g>
  </g>
  <g class="cls-1">
    <g>
      <path d="M143.4,940.9c14.5,2.8,28.5,5.8,42,9.2s25.6,8.1,36.1,14.2c10.6,6.1,19,14.2,25.3,24.3,6.3,10.1,9.4,23.2,9.4,39.4s-3.5,30.9-10.6,43-16.7,21.9-29.1,29.7c-12.3,7.7-26.7,13.4-43.2,17.2-16.5,3.8-34.3,5.6-53.5,5.6-7.8,0-16.6-.3-26.1-.9-9.6-.6-19.5-1.5-29.7-2.7s-20.2-2.6-30-4.2c-9.8-1.6-18.8-3.4-27-5.3v-67c6.7,2,14.8,3.7,24.4,5,9.6,1.4,19.7,2.6,30.3,3.6,10.6,1,21.2,1.8,32,2.4s20.7.9,29.7.9c23.5,0,40.3-1.9,50.2-5.6,10-3.8,15-9.8,15-18.1,0-2.8-.9-5.2-2.6-7.4-1.8-2.2-5.3-4.3-10.6-6.5s-12.8-4.3-22.6-6.5-22.7-4.8-38.8-8c-7.4-1.6-17-3.6-28.8-5.9-11.8-2.4-23.2-6.7-34.4-13-11.2-6.3-20.9-15-29.1-26.1-8.2-11.1-12.3-25.9-12.3-44.5,0-15.8,3.1-29.6,9.4-41.2,6.3-11.7,15-21.4,26.1-29.1,11.2-7.7,24.4-13.4,39.7-17.2,15.3-3.8,31.9-5.6,49.9-5.6,7.1,0,15.2.3,24.4.9,9.2.6,18.5,1.5,27.9,2.7s18.8,2.6,28.2,4.2c9.4,1.6,18,3.4,25.9,5.3v67c-5.5-1.6-12.7-3.1-21.7-4.4-9-1.4-18.5-2.7-28.5-3.9s-20.2-2.1-30.6-2.7c-10.4-.6-19.7-.9-27.9-.9-20.8,0-35.2,2-43.2,5.9-8,4-12,9.5-12,16.6,0,4,1.1,7.2,3.2,9.8s5.8,4.9,10.9,7.1c5.1,2.2,11.9,4.3,20.6,6.2,8.6,2,19.1,4.1,31.7,6.5Z"/>
      <path d="M119.8,1128.5c-7.97,0-16.85-.31-26.41-.91-9.65-.6-19.74-1.52-29.97-2.72-10.22-1.2-20.39-2.63-30.22-4.23-9.36-1.53-18.56-3.33-27.32-5.36l-3.87-.9v-77.69l6.43,1.92c6.65,1.99,14.61,3.61,23.64,4.84,9.53,1.39,19.64,2.59,30.1,3.58,10.72,1.01,21.13,1.79,31.81,2.39,10.66.59,20.56.89,29.42.89,22.77,0,39.07-1.78,48.45-5.28,10.53-4,11.75-9.57,11.75-13.42,0-1.59-.47-2.91-1.51-4.28-.85-1.01-3.04-2.69-8.61-5-4.77-1.98-11.89-4.02-21.78-6.24-9.3-2.09-21.22-4.5-38.68-7.97-8.97-1.94-18.63-3.92-28.78-5.9-12.46-2.53-24.18-6.96-35.89-13.55-11.77-6.62-22.09-15.87-30.67-27.49-8.81-11.93-13.28-27.9-13.28-47.47,0-16.7,3.37-31.36,10.01-43.59,6.64-12.33,15.94-22.71,27.64-30.82,11.6-7.98,25.51-14.01,41.35-17.94,15.57-3.87,32.29-5.75,51.1-5.75,7.24,0,15.33.3,24.73.91,9.27.61,18.76,1.52,28.21,2.73,9.44,1.21,19,2.63,28.41,4.23,8.87,1.51,17.69,3.31,26.23,5.37l3.83.92v77.6l-6.4-1.86c-5.51-1.6-12.58-3.03-21.02-4.25-8.95-1.39-18.48-2.7-28.38-3.88-9.86-1.18-20.05-2.08-30.29-2.67-10.27-.59-19.56-.89-27.61-.89-24.75,0-35.96,2.93-41.01,5.39-8.23,4.12-9.19,8.88-9.19,12.11,0,2.78.66,4.89,2.09,6.66,1.46,1.8,4.48,3.7,8.99,5.65,5,2.16,11.63,4.15,19.69,5.91,7.68,1.79,17.1,3.72,31.57,6.47h.01c15.87,3.07,29.7,6.1,42.27,9.26,14.11,3.55,26.69,8.51,37.39,14.72,11.2,6.45,20.3,15.19,27.03,25.98,6.74,10.81,10.16,24.95,10.16,42.05s-3.8,32.77-11.29,45.53c-7.55,12.86-17.61,23.13-30.75,31.4-12.64,7.91-27.69,13.91-44.74,17.84-16.73,3.85-34.6,5.73-54.62,5.73ZM12,1106.41c7.37,1.63,15.03,3.09,22.81,4.36,9.69,1.58,19.71,2.98,29.78,4.17,10.05,1.18,19.95,2.08,29.43,2.68,9.35.59,18.03.89,25.79.89,19.26,0,36.39-1.79,52.38-5.47,15.96-3.68,29.98-9.25,41.67-16.57,11.75-7.39,20.73-16.55,27.44-27.99,6.67-11.37,9.91-24.6,9.91-40.47s-2.91-27.56-8.64-36.75c-5.85-9.38-13.77-16.99-23.55-22.61-9.91-5.76-21.63-10.36-34.83-13.68-12.39-3.12-26.03-6.11-41.72-9.14-14.6-2.78-24.14-4.74-31.89-6.54-8.62-1.88-15.86-4.07-21.45-6.48-6.18-2.67-10.25-5.38-12.81-8.55-2.86-3.54-4.31-7.9-4.31-12.94,0-11.31,8.03-17.7,14.76-21.07,8.89-4.33,23.73-6.43,45.44-6.43,8.25,0,17.73.31,28.19.91,10.45.6,20.85,1.52,30.91,2.73,10.01,1.2,19.66,2.52,28.67,3.92,5.93.86,11.26,1.83,15.93,2.89v-56.59c-7.12-1.63-14.41-3.09-21.74-4.33-9.27-1.58-18.69-2.98-27.99-4.17-9.24-1.18-18.53-2.08-27.59-2.67-9.05-.59-17.15-.89-24.07-.89-17.99,0-33.92,1.78-48.69,5.45-14.67,3.64-27.48,9.18-38.07,16.47-10.38,7.2-18.64,16.41-24.53,27.35-5.84,10.76-8.8,23.82-8.8,38.83,0,17.39,3.81,31.36,11.32,41.53,7.74,10.48,17,18.79,27.53,24.71,10.79,6.07,21.56,10.14,32.95,12.46,10.18,1.98,19.9,3.98,28.86,5.91,17.45,3.47,29.44,5.9,38.84,8.01,10.6,2.38,18.05,4.53,23.42,6.76,6.25,2.59,10.24,5.12,12.55,7.95l.09.11c2.42,3.13,3.64,6.65,3.64,10.46,0,7.23-3.16,17.05-18.22,22.77-10.53,3.94-28.01,5.93-51.98,5.93-9.05,0-19.14-.31-29.98-.91-10.81-.6-21.34-1.39-32.19-2.42-10.63-1-20.91-2.22-30.55-3.63-6.79-.92-13.05-2.07-18.68-3.43v56.49Z"/>
    </g>
    <g>
      <path d="M441.9,820.5c22.7,0,42.2,5.4,58.5,16.3,16.3,10.9,29.1,25.4,38.5,43.6,9.4-18.2,22.2-32.7,38.5-43.6,16.3-10.9,35.7-16.3,58.5-16.3,21.2,0,39.9,3.7,56.1,11,16.3,7.3,30.1,17.3,41.4,30,11.4,12.7,20,27.4,25.9,44.2s8.8,34.9,8.8,54.3v160.1h-70.6v-160.1c0-21.4-5-38.8-15-52.5-10-13.6-25.6-20.5-46.7-20.5s-36.7,6.8-46.7,20.5c-10,13.6-15,31.1-15,52.5v160.1h-70.5v-160.1c0-21.4-5-38.8-15-52.5-10-13.6-25.6-20.5-46.7-20.5s-36.7,6.8-46.7,20.5c-10,13.6-15,31.1-15,52.5v160.1h-70.5v-160.1c0-19.4,2.9-37.5,8.8-54.3s14.5-31.5,25.9-44.2c11.4-12.6,25.2-22.6,41.4-30,16.2-7.3,34.9-11,56.1-11Z"/>
      <path d="M773.1,1125.1h-80.6v-165.1c0-20.4-4.59-36.61-14.04-49.55-9-12.24-23.35-18.45-42.66-18.45s-33.6,6.03-42.66,18.45c-9.32,12.67-14.04,29.34-14.04,49.55v165.1h-80.5v-165.1c0-20.4-4.59-36.61-14.04-49.55-9-12.24-23.35-18.45-42.66-18.45s-33.6,6.03-42.66,18.45c-9.32,12.67-14.04,29.34-14.04,49.55v165.1h-80.5v-165.1c0-19.97,3.06-38.8,9.08-55.96,6.09-17.35,15.14-32.79,26.9-45.88,11.82-13.06,26.3-23.56,43.04-31.21,16.87-7.6,36.44-11.45,58.18-11.45,23.65,0,44.27,5.77,61.28,17.14,14.47,9.68,26.46,22.28,35.72,37.54,9.26-15.25,21.25-27.86,35.72-37.54,17.01-11.38,37.63-17.14,61.28-17.14,21.74,0,41.31,3.85,58.15,11.44,16.86,7.55,31.36,18.06,43.08,31.24,11.74,13.08,20.79,28.51,26.88,45.87,6.03,17.16,9.08,35.99,9.08,55.96v165.1ZM702.5,1115.1h60.6v-155.1c0-18.84-2.87-36.55-8.52-52.64-5.66-16.1-14.03-30.41-24.9-42.52-10.79-12.12-24.15-21.8-39.72-28.78-15.56-7.01-33.74-10.56-54.06-10.56-21.94,0-40.17,5.06-55.72,15.46-15.49,10.36-27.88,24.4-36.84,41.74l-4.44,8.6-4.44-8.6c-8.96-17.34-21.35-31.38-36.84-41.74-15.34-10.26-34.08-15.46-55.72-15.46-20.31,0-38.5,3.55-54.05,10.56-15.48,7.07-28.86,16.76-39.75,28.8-10.86,12.09-19.23,26.4-24.89,42.5-5.65,16.09-8.52,33.8-8.52,52.64v155.1h60.5v-155.1c0-22.39,5.37-41.05,15.97-55.46,10.91-14.95,27.98-22.54,50.73-22.54s39.73,7.58,50.73,22.54c10.6,14.52,15.97,33.18,15.97,55.46v155.1h60.5v-155.1c0-22.39,5.37-41.05,15.97-55.46,10.91-14.95,27.98-22.54,50.73-22.54s39.73,7.58,50.73,22.54c10.6,14.52,15.97,33.18,15.97,55.46v155.1Z"/>
    </g>
    <g>
      <path d="M816.8,971.2c0-20.6,3.3-40,10-58.4s16.5-34.4,29.4-48,28.8-24.4,47.6-32.3c18.8-7.9,40.2-11.9,64.1-11.9,22.3,0,42.5,3.6,60.5,10.7,18,7.1,33.4,17.2,46.1,30.2s22.7,29,30,47.7c7.2,18.8,11.3,39.6,12,62.6.4,7.5.6,16.7.6,27.6s.6,22.8,1.8,35.9c1.2,13,3.3,26.8,6.5,41.2,3.1,14.4,8,29,14.7,43.6h-70.6c-6.7-14.6-11.6-29.8-14.7-45.7-10.2,15-23.1,26.9-38.8,35.6-15.7,8.7-34.5,13-56.4,13s-40-3.9-57.6-11.9c-17.6-7.9-32.7-18.7-45.2-32.3-12.5-13.6-22.3-29.7-29.4-48-7.1-18.4-10.6-38.3-10.6-59.6ZM967.8,887c-14.5,0-26.8,2.2-37,6.5-10.2,4.4-18.5,10.4-25,18.1-6.5,7.7-11.2,16.7-14.1,27-2.9,10.3-4.4,21.4-4.4,33.2s1.5,22.9,4.4,33.2,7.6,19.3,14.1,27,14.8,13.7,25,18.1,22.5,6.5,37,6.5c24.3,0,43.4-6.8,57.3-20.5,13.9-13.6,20.9-35.1,20.9-64.3-1.2-26.1-7.8-46.8-20-62-12.2-15.2-31.6-22.8-58.2-22.8Z"/>
      <path d="M959.6,1128c-21.57,0-41.64-4.15-59.67-12.35-18.12-8.14-33.88-19.4-46.81-33.47-12.8-13.92-23.02-30.6-30.38-49.58-7.26-18.81-10.94-39.47-10.94-61.41s3.47-41.34,10.3-60.11c6.91-18.96,17.16-35.69,30.47-49.73,13.35-14.07,29.93-25.33,49.29-33.47,19.41-8.16,41.63-12.29,66.04-12.29,22.78,0,43.75,3.72,62.33,11.05,18.58,7.33,34.67,17.88,47.84,31.36,13.05,13.36,23.51,29.97,31.08,49.38,7.48,19.54,11.63,41.13,12.34,64.21.4,7.53.6,16.89.6,27.81s.58,22.37,1.78,35.44c1.23,13.35,3.38,27,6.4,40.57,3.04,14.13,7.87,28.45,14.36,42.6l3.25,7.08h-81.6l-1.34-2.92c-5.32-11.59-9.56-23.68-12.67-36.08-9.48,11.56-20.83,21.04-33.86,28.26-16.32,9.04-36.11,13.63-58.82,13.63ZM967.9,825.6c-23.07,0-43.99,3.87-62.16,11.51-18.07,7.6-33.52,18.07-45.91,31.13-12.37,13.04-21.9,28.6-28.33,46.27-6.44,17.67-9.7,36.75-9.7,56.69s3.45,40.15,10.27,57.8c6.9,17.79,16.46,33.41,28.42,46.42,12.01,13.07,26.67,23.54,43.57,31.12,16.74,7.61,35.42,11.46,55.55,11.46s39.16-4.16,53.98-12.37c14.85-8.23,27.33-19.68,37.09-34.04l6.75-9.92,2.3,11.77c2.79,14.33,7.17,28.33,13.03,41.66h59.71c-5.25-12.5-9.25-25.1-11.93-37.55-3.1-13.95-5.32-28.02-6.59-41.79-1.23-13.38-1.82-25.27-1.82-36.36s-.2-19.97-.59-27.33v-.11c-.67-21.98-4.6-42.49-11.68-60.96-7.07-18.12-16.8-33.6-28.91-45.99-12.18-12.46-27.1-22.24-44.36-29.04-17.41-6.87-37.15-10.35-58.67-10.35ZM967.8,1061.6c-15.45,0-28.2-2.26-38.98-6.91-10.86-4.69-19.89-11.24-26.84-19.47-6.93-8.21-12.01-17.93-15.09-28.87-3.04-10.81-4.59-22.44-4.59-34.55s1.54-23.74,4.59-34.55c3.08-10.94,8.16-20.66,15.09-28.87,6.95-8.23,15.98-14.78,26.84-19.47,10.89-4.59,23.99-6.91,38.98-6.91,28.07,0,48.96,8.3,62.1,24.67,12.75,15.88,19.85,37.72,21.1,64.9v.23c0,30.49-7.53,53.33-22.4,67.88-14.76,14.54-35.22,21.93-60.8,21.93ZM967.8,892c-13.65,0-25.44,2.05-35.06,6.11-9.52,4.11-17.1,9.58-23.12,16.72-6.01,7.11-10.42,15.57-13.11,25.13-2.79,9.93-4.21,20.64-4.21,31.84s1.38,21.78,4.21,31.84c2.69,9.56,7.1,18.01,13.11,25.13,6.02,7.14,13.6,12.61,23.16,16.74,9.5,4.1,20.96,6.09,35.02,6.09,22.86,0,40.96-6.41,53.79-19.06,12.87-12.59,19.39-32.98,19.41-60.62-1.17-24.97-7.52-44.81-18.9-58.99-11.15-13.89-29.42-20.93-54.3-20.93Z"/>
    </g>
    <g>
      <path d="M1257.5,1120h-70.5v-147.6c0-21,3.3-40.7,10-59.3s16.5-34.7,29.4-48.3,28.8-24.4,47.6-32.3c18.8-7.9,40.3-11.9,64.6-11.9,4.3,0,8.6.3,12.9.9,4.3.6,8.6,1.3,12.9,2.1v68.8c-3.9-.8-7.6-1.5-11.2-2.1-3.5-.6-7.3-.9-11.2-.9-16.1,0-29.5,2.2-40.3,6.5-10.8,4.4-19.5,10.2-26.1,17.5-6.7,7.3-11.4,16-14.1,26.1s-4.1,20.9-4.1,32.3v148.2h.1Z"/>
      <path d="M1257.5,1125h-75.5v-152.6c0-21.51,3.46-42.03,10.3-60.99,6.9-19.17,17.16-36.01,30.48-50.05,13.35-14.07,29.93-25.33,49.29-33.47,19.41-8.16,41.79-12.29,66.54-12.29,4.51,0,9.08.32,13.59.95,4.38.61,8.79,1.33,13.12,2.14l4.08.76v79.08l-6-1.23c-4.02-.83-7.63-1.5-11.02-2.07-3.23-.55-6.71-.83-10.38-.83-15.27,0-28.21,2.07-38.45,6.15-10.06,4.1-18.23,9.56-24.24,16.21-6.14,6.69-10.5,14.77-12.98,24.04-2.61,9.75-3.93,20.19-3.93,31.01v148.2h-4.9v5ZM1192,1115h60.4v-143.2c0-11.69,1.44-22.99,4.27-33.59,2.9-10.84,8.03-20.32,15.25-28.19,7.01-7.75,16.4-14.07,27.9-18.75,11.46-4.56,25.64-6.87,42.19-6.87,4.23,0,8.28.33,12.04.97,1.72.29,3.5.6,5.36.95v-58.54c-2.86-.49-5.73-.94-8.59-1.33-4.05-.57-8.16-.85-12.21-.85-23.41,0-44.49,3.87-62.66,11.51-18.07,7.6-33.52,18.07-45.91,31.13-12.36,13.03-21.89,28.7-28.32,46.55-6.44,17.88-9.7,37.26-9.7,57.61v142.6Z"/>
    </g>
    <g>
      <path d="M1553.1,1056.6c5.9,0,10.8-.3,14.7-.9,3.9-.6,7.8-1.3,11.8-2.1v66.4c-5.1.8-9.3,1.5-12.6,2.1-3.3.6-8.7.9-16.2.9-22.7,0-43.1-3.9-61.1-11.9-18-7.9-33.4-18.7-46.1-32.3-12.7-13.6-22.5-29.7-29.4-48-6.9-18.4-10.3-38-10.3-59v-219.5h70.5v81.3h91.1v66.4h-91.1v71.8c0,24.9,6.4,45.3,19.1,61.1,12.6,15.8,32.5,23.7,59.6,23.7Z"/>
      <path d="M1550.8,1128c-23.48,0-44.72-4.15-63.13-12.33-18.53-8.13-34.59-19.39-47.72-33.46-13.03-13.95-23.26-30.65-30.42-49.65-7.05-18.79-10.62-39.24-10.62-60.76v-224.5h80.5v81.3h91.1v76.4h-91.1v66.8c0,23.61,6.05,43.11,18,57.97,11.56,14.49,30.29,21.83,55.7,21.83,5.62,0,10.31-.28,13.94-.84,3.71-.57,7.5-1.24,11.58-2.06l5.98-1.2v76.78l-4.23.66c-5.04.79-9.24,1.49-12.48,2.08-3.63.66-9.22.98-17.1.98ZM1408.9,757.3v214.5c0,20.32,3.36,39.58,9.98,57.24,6.69,17.76,16.24,33.35,28.37,46.34,12.2,13.07,27.16,23.54,44.46,31.13,17.14,7.62,37.02,11.48,59.09,11.48,7.17,0,12.32-.28,15.31-.82,2.36-.43,5.21-.91,8.49-1.45v-56.1c-2.05.37-4.06.7-6.04,1-4.14.64-9.34.96-15.46.96-28.6,0-49.97-8.61-63.51-25.58-13.39-16.66-20.19-38.27-20.19-64.22v-76.8h91.1v-56.4h-91.1v-81.3h-60.5Z"/>
    </g>
  </g>
</svg>